<svg xmlns="http://www.w3.org/2000/svg" xmlns:xlink="http://www.w3.org/1999/xlink" width="1080" zoomAndPan="magnify" viewBox="0 0 810 809.999993" height="1080" preserveAspectRatio="xMidYMid meet" version="1.0"><defs><g/><clipPath id="c99d687548"><path d="M 243.191406 344.28125 L 582.179688 344.28125 L 582.179688 460.53125 L 243.191406 460.53125 Z M 243.191406 344.28125 " clip-rule="nonzero"/></clipPath></defs><g clip-path="url(#c99d687548)"><path stroke-linecap="butt" transform="matrix(0.749741, 0, 0, 0.748566, 243.19089, 344.281027)" fill="none" stroke-linejoin="miter" d="M 0.000689018 0.000297262 L 452.14139 0.000297262 L 452.14139 155.297188 L 0.000689018 155.297188 L 0.000689018 0.000297262 " stroke="#ffffff" stroke-width="4" stroke-opacity="1" stroke-miterlimit="4"/></g><path fill="#ffffff" d="M 316.214844 355.628906 C 287.867188 353.816406 264.394531 377.285156 266.207031 405.636719 C 267.707031 429.070312 286.636719 447.996094 310.070312 449.496094 C 338.417969 451.308594 361.886719 427.839844 360.074219 399.488281 C 358.578125 376.054688 339.648438 357.125 316.214844 355.628906 Z M 334.4375 425.898438 C 336.285156 419.542969 337.390625 412.234375 337.539062 404.371094 L 356.511719 404.371094 C 356.09375 414.453125 352.222656 423.652344 346.054688 430.828125 C 343.222656 428.84375 339.265625 427.164062 334.4375 425.898438 Z M 280.230469 430.828125 C 274.058594 423.652344 270.1875 414.453125 269.773438 404.371094 L 288.746094 404.371094 C 288.890625 412.234375 289.996094 419.542969 291.847656 425.898438 C 287.015625 427.167969 283.058594 428.84375 280.230469 430.828125 Z M 291.835938 379.257812 C 289.992188 385.605469 288.890625 392.902344 288.742188 400.753906 L 269.773438 400.753906 C 270.1875 390.71875 274.023438 381.558594 280.140625 374.398438 C 283.019531 376.347656 287.003906 378.003906 291.835938 379.257812 Z M 311.332031 400.753906 L 292.363281 400.753906 C 292.515625 393.265625 293.632812 386.199219 295.449219 380.085938 C 300.339844 381.074219 305.761719 381.636719 311.332031 381.734375 Z M 311.332031 404.371094 L 311.332031 423.386719 C 305.75 423.488281 300.328125 424.058594 295.457031 425.058594 C 293.632812 418.9375 292.519531 411.867188 292.363281 404.371094 Z M 314.949219 404.371094 L 333.921875 404.371094 C 333.765625 411.867188 332.648438 418.9375 330.828125 425.058594 C 325.953125 424.058594 320.53125 423.488281 314.949219 423.386719 Z M 314.949219 400.753906 L 314.949219 381.734375 C 320.523438 381.636719 325.945312 381.074219 330.832031 380.085938 C 332.652344 386.199219 333.765625 393.265625 333.921875 400.753906 Z M 314.949219 378.117188 L 314.949219 359.332031 C 320.890625 360.457031 326.207031 367.054688 329.691406 376.628906 C 325.148438 377.515625 320.121094 378.023438 314.949219 378.117188 Z M 311.332031 359.332031 L 311.332031 378.117188 C 306.164062 378.023438 301.136719 377.515625 296.589844 376.628906 C 300.074219 367.054688 305.390625 360.457031 311.332031 359.332031 Z M 311.332031 427.003906 L 311.332031 445.792969 C 305.394531 444.667969 300.082031 438.078125 296.597656 428.511719 C 301.128906 427.613281 306.152344 427.101562 311.332031 427.003906 Z M 314.949219 445.792969 L 314.949219 427.003906 C 320.128906 427.101562 325.152344 427.613281 329.6875 428.511719 C 326.199219 438.074219 320.886719 444.667969 314.949219 445.792969 Z M 337.539062 400.753906 C 337.390625 392.902344 336.292969 385.605469 334.445312 379.257812 C 339.277344 378 343.261719 376.347656 346.140625 374.398438 C 352.261719 381.558594 356.097656 390.71875 356.507812 400.753906 Z M 343.640625 371.699219 C 341.109375 373.304688 337.566406 374.71875 333.339844 375.804688 C 331.070312 369.386719 327.988281 364.164062 324.359375 360.625 C 331.742188 362.601562 338.355469 366.476562 343.640625 371.699219 Z M 292.941406 375.804688 C 288.71875 374.722656 285.175781 373.304688 282.644531 371.703125 C 287.925781 366.476562 294.542969 362.601562 301.925781 360.625 C 298.292969 364.164062 295.210938 369.386719 292.941406 375.804688 Z M 282.734375 433.507812 C 285.214844 431.882812 288.730469 430.445312 292.953125 429.347656 C 295.222656 435.753906 298.300781 440.964844 301.925781 444.496094 C 294.582031 442.53125 288.003906 438.6875 282.734375 433.507812 Z M 333.328125 429.347656 C 337.554688 430.445312 341.070312 431.882812 343.546875 433.507812 C 338.277344 438.6875 331.699219 442.53125 324.359375 444.496094 C 327.984375 440.964844 331.0625 435.753906 333.328125 429.347656 Z M 333.328125 429.347656 " fill-opacity="1" fill-rule="nonzero"/><g fill="#ffffff" fill-opacity="1"><g transform="translate(372.939095, 390.805724)"><g><path d="M 5.078125 -18.125 C 6.503906 -18.125 7.53125 -17.769531 8.15625 -17.0625 C 8.789062 -16.351562 9.109375 -15.328125 9.109375 -13.984375 L 9.109375 -12.5 C 9.109375 -11.5 8.925781 -10.6875 8.5625 -10.0625 C 8.207031 -9.445312 7.640625 -9.019531 6.859375 -8.78125 C 7.691406 -8.539062 8.28125 -8.09375 8.625 -7.4375 C 8.96875 -6.789062 9.140625 -5.976562 9.140625 -5 L 9.140625 -2.171875 C 9.140625 -1.773438 9.15625 -1.390625 9.1875 -1.015625 C 9.226562 -0.648438 9.332031 -0.3125 9.5 0 L 7.453125 0 C 7.335938 -0.257812 7.253906 -0.539062 7.203125 -0.84375 C 7.148438 -1.144531 7.125 -1.597656 7.125 -2.203125 L 7.125 -5.046875 C 7.125 -6.066406 6.894531 -6.769531 6.4375 -7.15625 C 5.976562 -7.539062 5.328125 -7.734375 4.484375 -7.734375 L 3.0625 -7.734375 L 3.0625 0 L 1.03125 0 L 1.03125 -18.125 Z M 4.5625 -9.578125 C 5.375 -9.578125 6.003906 -9.742188 6.453125 -10.078125 C 6.898438 -10.421875 7.125 -11.082031 7.125 -12.0625 L 7.125 -13.796875 C 7.125 -14.628906 6.960938 -15.25 6.640625 -15.65625 C 6.316406 -16.070312 5.773438 -16.28125 5.015625 -16.28125 L 3.0625 -16.28125 L 3.0625 -9.578125 Z M 4.5625 -9.578125 "/></g></g></g><g fill="#ffffff" fill-opacity="1"><g transform="translate(383.138458, 390.805724)"><g><path d="M 3.078125 -3.65625 L 2.375 0 L 0.515625 0 L 3.984375 -18.125 L 6.90625 -18.125 L 10.375 0 L 8.359375 0 L 7.65625 -3.65625 Z M 3.34375 -5.390625 L 7.375 -5.390625 L 5.328125 -15.84375 Z M 3.34375 -5.390625 "/></g></g></g><g fill="#ffffff" fill-opacity="1"><g transform="translate(394.062656, 390.805724)"><g><path d="M 4.9375 -18.296875 C 6.34375 -18.296875 7.375 -17.878906 8.03125 -17.046875 C 8.695312 -16.222656 9.03125 -15.125 9.03125 -13.75 L 9.03125 -12.1875 L 7.125 -12.1875 L 7.125 -13.84375 C 7.125 -14.675781 6.953125 -15.320312 6.609375 -15.78125 C 6.273438 -16.238281 5.738281 -16.46875 5 -16.46875 C 4.269531 -16.46875 3.734375 -16.238281 3.390625 -15.78125 C 3.046875 -15.320312 2.875 -14.675781 2.875 -13.84375 L 2.875 -4.265625 C 2.875 -3.441406 3.046875 -2.800781 3.390625 -2.34375 C 3.734375 -1.882812 4.269531 -1.65625 5 -1.65625 C 5.738281 -1.65625 6.273438 -1.882812 6.609375 -2.34375 C 6.953125 -2.800781 7.125 -3.441406 7.125 -4.265625 L 7.125 -7.890625 L 5.25 -7.890625 L 5.25 -9.703125 L 9.03125 -9.703125 L 9.03125 -4.375 C 9.03125 -2.988281 8.695312 -1.878906 8.03125 -1.046875 C 7.375 -0.222656 6.34375 0.1875 4.9375 0.1875 C 3.5625 0.1875 2.539062 -0.222656 1.875 -1.046875 C 1.207031 -1.878906 0.875 -2.988281 0.875 -4.375 L 0.875 -13.75 C 0.875 -14.4375 0.957031 -15.0625 1.125 -15.625 C 1.289062 -16.1875 1.539062 -16.664062 1.875 -17.0625 C 2.207031 -17.457031 2.628906 -17.757812 3.140625 -17.96875 C 3.648438 -18.1875 4.25 -18.296875 4.9375 -18.296875 Z M 4.9375 -18.296875 "/></g></g></g><g fill="#ffffff" fill-opacity="1"><g transform="translate(403.977267, 390.805724)"><g><path d="M 3.0625 -18.125 L 3.0625 0 L 1.03125 0 L 1.03125 -18.125 Z M 3.0625 -18.125 "/></g></g></g><g fill="#ffffff" fill-opacity="1"><g transform="translate(408.067363, 390.805724)"><g><path d="M 2.828125 0 L 1.015625 0 L 1.015625 -18.125 L 3.578125 -18.125 L 7.765625 -5.015625 L 7.765625 -18.125 L 9.546875 -18.125 L 9.546875 0 L 7.453125 0 L 2.828125 -14.65625 Z M 2.828125 0 "/></g></g></g><g fill="#ffffff" fill-opacity="1"><g transform="translate(418.655024, 390.805724)"><g><path d="M 4.9375 -18.296875 C 6.34375 -18.296875 7.375 -17.878906 8.03125 -17.046875 C 8.695312 -16.222656 9.03125 -15.125 9.03125 -13.75 L 9.03125 -12.1875 L 7.125 -12.1875 L 7.125 -13.84375 C 7.125 -14.675781 6.953125 -15.320312 6.609375 -15.78125 C 6.273438 -16.238281 5.738281 -16.46875 5 -16.46875 C 4.269531 -16.46875 3.734375 -16.238281 3.390625 -15.78125 C 3.046875 -15.320312 2.875 -14.675781 2.875 -13.84375 L 2.875 -4.265625 C 2.875 -3.441406 3.046875 -2.800781 3.390625 -2.34375 C 3.734375 -1.882812 4.269531 -1.65625 5 -1.65625 C 5.738281 -1.65625 6.273438 -1.882812 6.609375 -2.34375 C 6.953125 -2.800781 7.125 -3.441406 7.125 -4.265625 L 7.125 -7.890625 L 5.25 -7.890625 L 5.25 -9.703125 L 9.03125 -9.703125 L 9.03125 -4.375 C 9.03125 -2.988281 8.695312 -1.878906 8.03125 -1.046875 C 7.375 -0.222656 6.34375 0.1875 4.9375 0.1875 C 3.5625 0.1875 2.539062 -0.222656 1.875 -1.046875 C 1.207031 -1.878906 0.875 -2.988281 0.875 -4.375 L 0.875 -13.75 C 0.875 -14.4375 0.957031 -15.0625 1.125 -15.625 C 1.289062 -16.1875 1.539062 -16.664062 1.875 -17.0625 C 2.207031 -17.457031 2.628906 -17.757812 3.140625 -17.96875 C 3.648438 -18.1875 4.25 -18.296875 4.9375 -18.296875 Z M 4.9375 -18.296875 "/></g></g></g><g fill="#ffffff" fill-opacity="1"><g transform="translate(428.569635, 390.805724)"><g/></g></g><g fill="#ffffff" fill-opacity="1"><g transform="translate(432.582071, 390.805724)"><g><path d="M 5.078125 -18.125 C 6.503906 -18.125 7.53125 -17.769531 8.15625 -17.0625 C 8.789062 -16.351562 9.109375 -15.328125 9.109375 -13.984375 L 9.109375 -12.5 C 9.109375 -11.5 8.925781 -10.6875 8.5625 -10.0625 C 8.207031 -9.445312 7.640625 -9.019531 6.859375 -8.78125 C 7.691406 -8.539062 8.28125 -8.09375 8.625 -7.4375 C 8.96875 -6.789062 9.140625 -5.976562 9.140625 -5 L 9.140625 -2.171875 C 9.140625 -1.773438 9.15625 -1.390625 9.1875 -1.015625 C 9.226562 -0.648438 9.332031 -0.3125 9.5 0 L 7.453125 0 C 7.335938 -0.257812 7.253906 -0.539062 7.203125 -0.84375 C 7.148438 -1.144531 7.125 -1.597656 7.125 -2.203125 L 7.125 -5.046875 C 7.125 -6.066406 6.894531 -6.769531 6.4375 -7.15625 C 5.976562 -7.539062 5.328125 -7.734375 4.484375 -7.734375 L 3.0625 -7.734375 L 3.0625 0 L 1.03125 0 L 1.03125 -18.125 Z M 4.5625 -9.578125 C 5.375 -9.578125 6.003906 -9.742188 6.453125 -10.078125 C 6.898438 -10.421875 7.125 -11.082031 7.125 -12.0625 L 7.125 -13.796875 C 7.125 -14.628906 6.960938 -15.25 6.640625 -15.65625 C 6.316406 -16.070312 5.773438 -16.28125 5.015625 -16.28125 L 3.0625 -16.28125 L 3.0625 -9.578125 Z M 4.5625 -9.578125 "/></g></g></g><g fill="#ffffff" fill-opacity="1"><g transform="translate(442.781434, 390.805724)"><g><path d="M 2.953125 -4.265625 C 2.953125 -3.441406 3.117188 -2.800781 3.453125 -2.34375 C 3.796875 -1.882812 4.335938 -1.65625 5.078125 -1.65625 C 5.796875 -1.65625 6.320312 -1.882812 6.65625 -2.34375 C 7 -2.800781 7.171875 -3.441406 7.171875 -4.265625 L 7.171875 -18.125 L 9.0625 -18.125 L 9.0625 -4.375 C 9.0625 -2.988281 8.734375 -1.878906 8.078125 -1.046875 C 7.421875 -0.210938 6.394531 0.203125 5 0.203125 C 3.613281 0.203125 2.59375 -0.210938 1.9375 -1.046875 C 1.28125 -1.878906 0.953125 -2.988281 0.953125 -4.375 L 0.953125 -18.125 L 2.953125 -18.125 Z M 2.953125 -4.265625 "/></g></g></g><g fill="#ffffff" fill-opacity="1"><g transform="translate(452.799591, 390.805724)"><g><path d="M 4.84375 -18.296875 C 6.21875 -18.296875 7.234375 -17.882812 7.890625 -17.0625 C 8.546875 -16.25 8.875 -15.15625 8.875 -13.78125 L 8.875 -13.28125 L 6.96875 -13.28125 L 6.96875 -13.875 C 6.96875 -14.707031 6.800781 -15.347656 6.46875 -15.796875 C 6.144531 -16.242188 5.617188 -16.46875 4.890625 -16.46875 C 4.171875 -16.46875 3.644531 -16.242188 3.3125 -15.796875 C 2.988281 -15.347656 2.828125 -14.71875 2.828125 -13.90625 C 2.828125 -13.226562 2.976562 -12.640625 3.28125 -12.140625 C 3.582031 -11.640625 3.957031 -11.175781 4.40625 -10.75 C 4.851562 -10.332031 5.335938 -9.921875 5.859375 -9.515625 C 6.390625 -9.109375 6.878906 -8.660156 7.328125 -8.171875 C 7.773438 -7.691406 8.148438 -7.144531 8.453125 -6.53125 C 8.753906 -5.925781 8.90625 -5.195312 8.90625 -4.34375 C 8.90625 -2.96875 8.570312 -1.867188 7.90625 -1.046875 C 7.238281 -0.222656 6.207031 0.1875 4.8125 0.1875 C 3.414062 0.1875 2.390625 -0.222656 1.734375 -1.046875 C 1.078125 -1.867188 0.75 -2.96875 0.75 -4.34375 L 0.75 -5.390625 L 2.640625 -5.390625 L 2.640625 -4.25 C 2.640625 -3.414062 2.8125 -2.773438 3.15625 -2.328125 C 3.5 -1.878906 4.035156 -1.65625 4.765625 -1.65625 C 5.484375 -1.65625 6.015625 -1.878906 6.359375 -2.328125 C 6.710938 -2.773438 6.890625 -3.414062 6.890625 -4.25 C 6.890625 -4.914062 6.738281 -5.492188 6.4375 -5.984375 C 6.132812 -6.484375 5.757812 -6.941406 5.3125 -7.359375 C 4.863281 -7.785156 4.378906 -8.203125 3.859375 -8.609375 C 3.335938 -9.015625 2.851562 -9.457031 2.40625 -9.9375 C 1.957031 -10.425781 1.582031 -10.972656 1.28125 -11.578125 C 0.976562 -12.191406 0.828125 -12.925781 0.828125 -13.78125 C 0.828125 -15.175781 1.15625 -16.273438 1.8125 -17.078125 C 2.46875 -17.890625 3.476562 -18.296875 4.84375 -18.296875 Z M 4.84375 -18.296875 "/></g></g></g><g fill="#ffffff" fill-opacity="1"><g transform="translate(462.429451, 390.805724)"><g><path d="M 4.109375 -7.875 L 3.0625 -6.078125 L 3.0625 0 L 1.03125 0 L 1.03125 -18.125 L 3.0625 -18.125 L 3.0625 -9.375 L 7.875 -18.125 L 9.921875 -18.125 L 5.328125 -9.859375 L 10.078125 0 L 8 0 Z M 4.109375 -7.875 "/></g></g></g><g fill="#ffffff" fill-opacity="1"><g transform="translate(473.017112, 390.805724)"><g><path d="M 7.484375 -10.09375 L 7.484375 -8.28125 L 3.0625 -8.28125 L 3.0625 -1.84375 L 8.484375 -1.84375 L 8.484375 0 L 1.03125 0 L 1.03125 -18.125 L 8.484375 -18.125 L 8.484375 -16.28125 L 3.0625 -16.28125 L 3.0625 -10.09375 Z M 7.484375 -10.09375 "/></g></g></g><g fill="#ffffff" fill-opacity="1"><g transform="translate(482.336333, 390.805724)"><g><path d="M 5.078125 -18.125 C 6.503906 -18.125 7.53125 -17.769531 8.15625 -17.0625 C 8.789062 -16.351562 9.109375 -15.328125 9.109375 -13.984375 L 9.109375 -12.5 C 9.109375 -11.5 8.925781 -10.6875 8.5625 -10.0625 C 8.207031 -9.445312 7.640625 -9.019531 6.859375 -8.78125 C 7.691406 -8.539062 8.28125 -8.09375 8.625 -7.4375 C 8.96875 -6.789062 9.140625 -5.976562 9.140625 -5 L 9.140625 -2.171875 C 9.140625 -1.773438 9.15625 -1.390625 9.1875 -1.015625 C 9.226562 -0.648438 9.332031 -0.3125 9.5 0 L 7.453125 0 C 7.335938 -0.257812 7.253906 -0.539062 7.203125 -0.84375 C 7.148438 -1.144531 7.125 -1.597656 7.125 -2.203125 L 7.125 -5.046875 C 7.125 -6.066406 6.894531 -6.769531 6.4375 -7.15625 C 5.976562 -7.539062 5.328125 -7.734375 4.484375 -7.734375 L 3.0625 -7.734375 L 3.0625 0 L 1.03125 0 L 1.03125 -18.125 Z M 4.5625 -9.578125 C 5.375 -9.578125 6.003906 -9.742188 6.453125 -10.078125 C 6.898438 -10.421875 7.125 -11.082031 7.125 -12.0625 L 7.125 -13.796875 C 7.125 -14.628906 6.960938 -15.25 6.640625 -15.65625 C 6.316406 -16.070312 5.773438 -16.28125 5.015625 -16.28125 L 3.0625 -16.28125 L 3.0625 -9.578125 Z M 4.5625 -9.578125 "/></g></g></g><g fill="#ffffff" fill-opacity="1"><g transform="translate(492.535696, 390.805724)"><g/></g></g><g fill="#ffffff" fill-opacity="1"><g transform="translate(496.548132, 390.805724)"><g><path d="M 4.84375 -18.296875 C 6.21875 -18.296875 7.234375 -17.882812 7.890625 -17.0625 C 8.546875 -16.25 8.875 -15.15625 8.875 -13.78125 L 8.875 -13.28125 L 6.96875 -13.28125 L 6.96875 -13.875 C 6.96875 -14.707031 6.800781 -15.347656 6.46875 -15.796875 C 6.144531 -16.242188 5.617188 -16.46875 4.890625 -16.46875 C 4.171875 -16.46875 3.644531 -16.242188 3.3125 -15.796875 C 2.988281 -15.347656 2.828125 -14.71875 2.828125 -13.90625 C 2.828125 -13.226562 2.976562 -12.640625 3.28125 -12.140625 C 3.582031 -11.640625 3.957031 -11.175781 4.40625 -10.75 C 4.851562 -10.332031 5.335938 -9.921875 5.859375 -9.515625 C 6.390625 -9.109375 6.878906 -8.660156 7.328125 -8.171875 C 7.773438 -7.691406 8.148438 -7.144531 8.453125 -6.53125 C 8.753906 -5.925781 8.90625 -5.195312 8.90625 -4.34375 C 8.90625 -2.96875 8.570312 -1.867188 7.90625 -1.046875 C 7.238281 -0.222656 6.207031 0.1875 4.8125 0.1875 C 3.414062 0.1875 2.390625 -0.222656 1.734375 -1.046875 C 1.078125 -1.867188 0.75 -2.96875 0.75 -4.34375 L 0.75 -5.390625 L 2.640625 -5.390625 L 2.640625 -4.25 C 2.640625 -3.414062 2.8125 -2.773438 3.15625 -2.328125 C 3.5 -1.878906 4.035156 -1.65625 4.765625 -1.65625 C 5.484375 -1.65625 6.015625 -1.878906 6.359375 -2.328125 C 6.710938 -2.773438 6.890625 -3.414062 6.890625 -4.25 C 6.890625 -4.914062 6.738281 -5.492188 6.4375 -5.984375 C 6.132812 -6.484375 5.757812 -6.941406 5.3125 -7.359375 C 4.863281 -7.785156 4.378906 -8.203125 3.859375 -8.609375 C 3.335938 -9.015625 2.851562 -9.457031 2.40625 -9.9375 C 1.957031 -10.425781 1.582031 -10.972656 1.28125 -11.578125 C 0.976562 -12.191406 0.828125 -12.925781 0.828125 -13.78125 C 0.828125 -15.175781 1.15625 -16.273438 1.8125 -17.078125 C 2.46875 -17.890625 3.476562 -18.296875 4.84375 -18.296875 Z M 4.84375 -18.296875 "/></g></g></g><g fill="#ffffff" fill-opacity="1"><g transform="translate(506.177991, 390.805724)"><g><path d="M 0.875 -13.75 C 0.875 -15.144531 1.210938 -16.25 1.890625 -17.0625 C 2.578125 -17.882812 3.617188 -18.296875 5.015625 -18.296875 C 6.421875 -18.296875 7.46875 -17.882812 8.15625 -17.0625 C 8.84375 -16.25 9.1875 -15.144531 9.1875 -13.75 L 9.1875 -4.375 C 9.1875 -2.988281 8.84375 -1.878906 8.15625 -1.046875 C 7.46875 -0.222656 6.421875 0.1875 5.015625 0.1875 C 3.617188 0.1875 2.578125 -0.222656 1.890625 -1.046875 C 1.210938 -1.878906 0.875 -2.988281 0.875 -4.375 Z M 2.875 -4.265625 C 2.875 -3.441406 3.050781 -2.800781 3.40625 -2.34375 C 3.757812 -1.882812 4.296875 -1.65625 5.015625 -1.65625 C 5.765625 -1.65625 6.3125 -1.882812 6.65625 -2.34375 C 7 -2.800781 7.171875 -3.441406 7.171875 -4.265625 L 7.171875 -13.84375 C 7.171875 -14.675781 7 -15.320312 6.65625 -15.78125 C 6.3125 -16.238281 5.765625 -16.46875 5.015625 -16.46875 C 4.296875 -16.46875 3.757812 -16.238281 3.40625 -15.78125 C 3.050781 -15.320312 2.875 -14.675781 2.875 -13.84375 Z M 2.875 -4.265625 "/></g></g></g><g fill="#ffffff" fill-opacity="1"><g transform="translate(516.247922, 390.805724)"><g><path d="M 4.9375 -18.296875 C 6.34375 -18.296875 7.375 -17.878906 8.03125 -17.046875 C 8.695312 -16.222656 9.03125 -15.125 9.03125 -13.75 L 9.03125 -12.109375 L 7.125 -12.109375 L 7.125 -13.84375 C 7.125 -14.675781 6.953125 -15.320312 6.609375 -15.78125 C 6.273438 -16.238281 5.738281 -16.46875 5 -16.46875 C 4.269531 -16.46875 3.734375 -16.238281 3.390625 -15.78125 C 3.046875 -15.320312 2.875 -14.675781 2.875 -13.84375 L 2.875 -4.265625 C 2.875 -3.441406 3.046875 -2.800781 3.390625 -2.34375 C 3.734375 -1.882812 4.269531 -1.65625 5 -1.65625 C 5.738281 -1.65625 6.273438 -1.882812 6.609375 -2.34375 C 6.953125 -2.800781 7.125 -3.441406 7.125 -4.265625 L 7.125 -6.625 L 9.03125 -6.625 L 9.03125 -4.375 C 9.03125 -2.988281 8.695312 -1.878906 8.03125 -1.046875 C 7.375 -0.222656 6.34375 0.1875 4.9375 0.1875 C 3.5625 0.1875 2.539062 -0.222656 1.875 -1.046875 C 1.207031 -1.878906 0.875 -2.988281 0.875 -4.375 L 0.875 -13.75 C 0.875 -14.4375 0.957031 -15.0625 1.125 -15.625 C 1.289062 -16.1875 1.539062 -16.664062 1.875 -17.0625 C 2.207031 -17.457031 2.628906 -17.757812 3.140625 -17.96875 C 3.648438 -18.1875 4.25 -18.296875 4.9375 -18.296875 Z M 4.9375 -18.296875 "/></g></g></g><g fill="#ffffff" fill-opacity="1"><g transform="translate(526.084874, 390.805724)"><g><path d="M 3.0625 -18.125 L 3.0625 0 L 1.03125 0 L 1.03125 -18.125 Z M 3.0625 -18.125 "/></g></g></g><g fill="#ffffff" fill-opacity="1"><g transform="translate(530.174969, 390.805724)"><g><path d="M 7.484375 -10.09375 L 7.484375 -8.28125 L 3.0625 -8.28125 L 3.0625 -1.84375 L 8.484375 -1.84375 L 8.484375 0 L 1.03125 0 L 1.03125 -18.125 L 8.484375 -18.125 L 8.484375 -16.28125 L 3.0625 -16.28125 L 3.0625 -10.09375 Z M 7.484375 -10.09375 "/></g></g></g><g fill="#ffffff" fill-opacity="1"><g transform="translate(539.49419, 390.805724)"><g><path d="M 3.671875 0 L 3.671875 -16.28125 L 0.34375 -16.28125 L 0.34375 -18.125 L 9.03125 -18.125 L 9.03125 -16.28125 L 5.703125 -16.28125 L 5.703125 0 Z M 3.671875 0 "/></g></g></g><g fill="#ffffff" fill-opacity="1"><g transform="translate(548.891071, 390.805724)"><g><path d="M 4.25 -6.5 L 0.421875 -18.125 L 2.515625 -18.125 L 5.328125 -9.21875 L 8.1875 -18.125 L 10.09375 -18.125 L 6.234375 -6.5 L 6.234375 0 L 4.25 0 Z M 4.25 -6.5 "/></g></g></g><g fill="#ffffff" fill-opacity="1"><g transform="translate(559.401072, 390.805724)"><g><path d="M 2.984375 -2.515625 L 2.984375 0 L 1.03125 0 L 1.03125 -2.515625 Z M 2.984375 -2.515625 "/></g></g></g><g fill="#ffffff" fill-opacity="1"><g transform="translate(372.939095, 426.805722)"><g><path d="M 4.9375 -18.296875 C 6.34375 -18.296875 7.375 -17.878906 8.03125 -17.046875 C 8.695312 -16.222656 9.03125 -15.125 9.03125 -13.75 L 9.03125 -12.109375 L 7.125 -12.109375 L 7.125 -13.84375 C 7.125 -14.675781 6.953125 -15.320312 6.609375 -15.78125 C 6.273438 -16.238281 5.738281 -16.46875 5 -16.46875 C 4.269531 -16.46875 3.734375 -16.238281 3.390625 -15.78125 C 3.046875 -15.320312 2.875 -14.675781 2.875 -13.84375 L 2.875 -4.265625 C 2.875 -3.441406 3.046875 -2.800781 3.390625 -2.34375 C 3.734375 -1.882812 4.269531 -1.65625 5 -1.65625 C 5.738281 -1.65625 6.273438 -1.882812 6.609375 -2.34375 C 6.953125 -2.800781 7.125 -3.441406 7.125 -4.265625 L 7.125 -6.625 L 9.03125 -6.625 L 9.03125 -4.375 C 9.03125 -2.988281 8.695312 -1.878906 8.03125 -1.046875 C 7.375 -0.222656 6.34375 0.1875 4.9375 0.1875 C 3.5625 0.1875 2.539062 -0.222656 1.875 -1.046875 C 1.207031 -1.878906 0.875 -2.988281 0.875 -4.375 L 0.875 -13.75 C 0.875 -14.4375 0.957031 -15.0625 1.125 -15.625 C 1.289062 -16.1875 1.539062 -16.664062 1.875 -17.0625 C 2.207031 -17.457031 2.628906 -17.757812 3.140625 -17.96875 C 3.648438 -18.1875 4.25 -18.296875 4.9375 -18.296875 Z M 4.9375 -18.296875 "/></g></g></g><g fill="#ffffff" fill-opacity="1"><g transform="translate(382.776047, 426.805722)"><g><path d="M 0.875 -13.75 C 0.875 -15.144531 1.210938 -16.25 1.890625 -17.0625 C 2.578125 -17.882812 3.617188 -18.296875 5.015625 -18.296875 C 6.421875 -18.296875 7.46875 -17.882812 8.15625 -17.0625 C 8.84375 -16.25 9.1875 -15.144531 9.1875 -13.75 L 9.1875 -4.375 C 9.1875 -2.988281 8.84375 -1.878906 8.15625 -1.046875 C 7.46875 -0.222656 6.421875 0.1875 5.015625 0.1875 C 3.617188 0.1875 2.578125 -0.222656 1.890625 -1.046875 C 1.210938 -1.878906 0.875 -2.988281 0.875 -4.375 Z M 2.875 -4.265625 C 2.875 -3.441406 3.050781 -2.800781 3.40625 -2.34375 C 3.757812 -1.882812 4.296875 -1.65625 5.015625 -1.65625 C 5.765625 -1.65625 6.3125 -1.882812 6.65625 -2.34375 C 7 -2.800781 7.171875 -3.441406 7.171875 -4.265625 L 7.171875 -13.84375 C 7.171875 -14.675781 7 -15.320312 6.65625 -15.78125 C 6.3125 -16.238281 5.765625 -16.46875 5.015625 -16.46875 C 4.296875 -16.46875 3.757812 -16.238281 3.40625 -15.78125 C 3.050781 -15.320312 2.875 -14.675781 2.875 -13.84375 Z M 2.875 -4.265625 "/></g></g></g><g fill="#ffffff" fill-opacity="1"><g transform="translate(392.845977, 426.805722)"><g><path d="M 1.03125 0 L 1.03125 -18.125 L 3.0625 -18.125 L 3.0625 -1.84375 L 8.234375 -1.84375 L 8.234375 0 Z M 1.03125 0 "/></g></g></g><g fill="#ffffff" fill-opacity="1"><g transform="translate(401.569797, 426.805722)"><g><path d="M 1.03125 0 L 1.03125 -18.125 L 3.0625 -18.125 L 3.0625 -1.84375 L 8.234375 -1.84375 L 8.234375 0 Z M 1.03125 0 "/></g></g></g><g fill="#ffffff" fill-opacity="1"><g transform="translate(410.293616, 426.805722)"><g><path d="M 7.484375 -10.09375 L 7.484375 -8.28125 L 3.0625 -8.28125 L 3.0625 -1.84375 L 8.484375 -1.84375 L 8.484375 0 L 1.03125 0 L 1.03125 -18.125 L 8.484375 -18.125 L 8.484375 -16.28125 L 3.0625 -16.28125 L 3.0625 -10.09375 Z M 7.484375 -10.09375 "/></g></g></g><g fill="#ffffff" fill-opacity="1"><g transform="translate(419.612837, 426.805722)"><g><path d="M 4.9375 -18.296875 C 6.34375 -18.296875 7.375 -17.878906 8.03125 -17.046875 C 8.695312 -16.222656 9.03125 -15.125 9.03125 -13.75 L 9.03125 -12.109375 L 7.125 -12.109375 L 7.125 -13.84375 C 7.125 -14.675781 6.953125 -15.320312 6.609375 -15.78125 C 6.273438 -16.238281 5.738281 -16.46875 5 -16.46875 C 4.269531 -16.46875 3.734375 -16.238281 3.390625 -15.78125 C 3.046875 -15.320312 2.875 -14.675781 2.875 -13.84375 L 2.875 -4.265625 C 2.875 -3.441406 3.046875 -2.800781 3.390625 -2.34375 C 3.734375 -1.882812 4.269531 -1.65625 5 -1.65625 C 5.738281 -1.65625 6.273438 -1.882812 6.609375 -2.34375 C 6.953125 -2.800781 7.125 -3.441406 7.125 -4.265625 L 7.125 -6.625 L 9.03125 -6.625 L 9.03125 -4.375 C 9.03125 -2.988281 8.695312 -1.878906 8.03125 -1.046875 C 7.375 -0.222656 6.34375 0.1875 4.9375 0.1875 C 3.5625 0.1875 2.539062 -0.222656 1.875 -1.046875 C 1.207031 -1.878906 0.875 -2.988281 0.875 -4.375 L 0.875 -13.75 C 0.875 -14.4375 0.957031 -15.0625 1.125 -15.625 C 1.289062 -16.1875 1.539062 -16.664062 1.875 -17.0625 C 2.207031 -17.457031 2.628906 -17.757812 3.140625 -17.96875 C 3.648438 -18.1875 4.25 -18.296875 4.9375 -18.296875 Z M 4.9375 -18.296875 "/></g></g></g><g fill="#ffffff" fill-opacity="1"><g transform="translate(429.449789, 426.805722)"><g><path d="M 3.671875 0 L 3.671875 -16.28125 L 0.34375 -16.28125 L 0.34375 -18.125 L 9.03125 -18.125 L 9.03125 -16.28125 L 5.703125 -16.28125 L 5.703125 0 Z M 3.671875 0 "/></g></g></g><g fill="#ffffff" fill-opacity="1"><g transform="translate(438.846669, 426.805722)"><g><path d="M 3.0625 -18.125 L 3.0625 0 L 1.03125 0 L 1.03125 -18.125 Z M 3.0625 -18.125 "/></g></g></g><g fill="#ffffff" fill-opacity="1"><g transform="translate(442.936765, 426.805722)"><g><path d="M 5.09375 -18.125 C 6.507812 -18.125 7.519531 -17.789062 8.125 -17.125 C 8.726562 -16.457031 9.03125 -15.453125 9.03125 -14.109375 L 9.03125 -13.25 C 9.03125 -12.289062 8.875 -11.507812 8.5625 -10.90625 C 8.257812 -10.3125 7.707031 -9.894531 6.90625 -9.65625 C 7.789062 -9.414062 8.414062 -8.957031 8.78125 -8.28125 C 9.15625 -7.613281 9.34375 -6.78125 9.34375 -5.78125 L 9.34375 -4.25 C 9.34375 -2.882812 9.003906 -1.832031 8.328125 -1.09375 C 7.660156 -0.363281 6.617188 0 5.203125 0 L 1.03125 0 L 1.03125 -18.125 Z M 4.609375 -10.4375 C 5.421875 -10.4375 6.03125 -10.597656 6.4375 -10.921875 C 6.84375 -11.253906 7.046875 -11.894531 7.046875 -12.84375 L 7.046875 -13.90625 C 7.046875 -14.71875 6.894531 -15.316406 6.59375 -15.703125 C 6.289062 -16.085938 5.773438 -16.28125 5.046875 -16.28125 L 3.0625 -16.28125 L 3.0625 -10.4375 Z M 5.203125 -1.84375 C 6.640625 -1.84375 7.359375 -2.660156 7.359375 -4.296875 L 7.359375 -5.90625 C 7.359375 -6.925781 7.15625 -7.628906 6.75 -8.015625 C 6.34375 -8.398438 5.695312 -8.59375 4.8125 -8.59375 L 3.0625 -8.59375 L 3.0625 -1.84375 Z M 5.203125 -1.84375 "/></g></g></g><g fill="#ffffff" fill-opacity="1"><g transform="translate(453.084355, 426.805722)"><g><path d="M 1.03125 0 L 1.03125 -18.125 L 3.0625 -18.125 L 3.0625 -1.84375 L 8.234375 -1.84375 L 8.234375 0 Z M 1.03125 0 "/></g></g></g><g fill="#ffffff" fill-opacity="1"><g transform="translate(461.808174, 426.805722)"><g><path d="M 7.484375 -10.09375 L 7.484375 -8.28125 L 3.0625 -8.28125 L 3.0625 -1.84375 L 8.484375 -1.84375 L 8.484375 0 L 1.03125 0 L 1.03125 -18.125 L 8.484375 -18.125 L 8.484375 -16.28125 L 3.0625 -16.28125 L 3.0625 -10.09375 Z M 7.484375 -10.09375 "/></g></g></g><g fill="#ffffff" fill-opacity="1"><g transform="translate(471.127395, 426.805722)"><g><path d="M 4.84375 -18.296875 C 6.21875 -18.296875 7.234375 -17.882812 7.890625 -17.0625 C 8.546875 -16.25 8.875 -15.15625 8.875 -13.78125 L 8.875 -13.28125 L 6.96875 -13.28125 L 6.96875 -13.875 C 6.96875 -14.707031 6.800781 -15.347656 6.46875 -15.796875 C 6.144531 -16.242188 5.617188 -16.46875 4.890625 -16.46875 C 4.171875 -16.46875 3.644531 -16.242188 3.3125 -15.796875 C 2.988281 -15.347656 2.828125 -14.71875 2.828125 -13.90625 C 2.828125 -13.226562 2.976562 -12.640625 3.28125 -12.140625 C 3.582031 -11.640625 3.957031 -11.175781 4.40625 -10.75 C 4.851562 -10.332031 5.335938 -9.921875 5.859375 -9.515625 C 6.390625 -9.109375 6.878906 -8.660156 7.328125 -8.171875 C 7.773438 -7.691406 8.148438 -7.144531 8.453125 -6.53125 C 8.753906 -5.925781 8.90625 -5.195312 8.90625 -4.34375 C 8.90625 -2.96875 8.570312 -1.867188 7.90625 -1.046875 C 7.238281 -0.222656 6.207031 0.1875 4.8125 0.1875 C 3.414062 0.1875 2.390625 -0.222656 1.734375 -1.046875 C 1.078125 -1.867188 0.75 -2.96875 0.75 -4.34375 L 0.75 -5.390625 L 2.640625 -5.390625 L 2.640625 -4.25 C 2.640625 -3.414062 2.8125 -2.773438 3.15625 -2.328125 C 3.5 -1.878906 4.035156 -1.65625 4.765625 -1.65625 C 5.484375 -1.65625 6.015625 -1.878906 6.359375 -2.328125 C 6.710938 -2.773438 6.890625 -3.414062 6.890625 -4.25 C 6.890625 -4.914062 6.738281 -5.492188 6.4375 -5.984375 C 6.132812 -6.484375 5.757812 -6.941406 5.3125 -7.359375 C 4.863281 -7.785156 4.378906 -8.203125 3.859375 -8.609375 C 3.335938 -9.015625 2.851562 -9.457031 2.40625 -9.9375 C 1.957031 -10.425781 1.582031 -10.972656 1.28125 -11.578125 C 0.976562 -12.191406 0.828125 -12.925781 0.828125 -13.78125 C 0.828125 -15.175781 1.15625 -16.273438 1.8125 -17.078125 C 2.46875 -17.890625 3.476562 -18.296875 4.84375 -18.296875 Z M 4.84375 -18.296875 "/></g></g></g></svg>